<svg fill="currentColor" viewBox="0 0 700 550" xmlns="http://www.w3.org/2000/svg">
  <path d="m416.5 122.5h-131.25c-5.25 0-10.5 3.5-10.5 10.5v129.5c0 5.25 3.5 10.5 10.5 10.5h131.25c5.25 0 10.5-3.5 10.5-10.5v-129.5c-1.75-7-5.25-10.5-10.5-10.5z" />
  <path d="m246.75 122.5h-131.25c-7 0-10.5 3.5-10.5 10.5v129.5c0 5.25 3.5 10.5 10.5 10.5h131.25c5.25 0 10.5-3.5 10.5-10.5v-129.5c-1.75-7-5.25-10.5-10.5-10.5z" />
  <path d="m584.5 122.5h-131.25c-5.25 0-10.5 3.5-10.5 10.5v129.5c0 5.25 3.5 10.5 10.5 10.5h131.25c5.25 0 10.5-3.5 10.5-10.5v-129.5c0-7-3.5-10.5-10.5-10.5z" />
  <path d="m416.5 288.75h-131.25c-5.25 0-10.5 3.5-10.5 10.5v129.5c0 5.25 3.5 10.5 10.5 10.5h131.25c5.25 0 10.5-3.5 10.5-10.5v-129.5c-1.75-5.25-5.25-10.5-10.5-10.5z" />
  <path d="m246.75 288.75h-131.25c-5.25 0-10.5 3.5-10.5 10.5v129.5c0 5.25 3.5 8.75 10.5 8.75h131.25c5.25 0 10.5-3.5 10.5-10.5v-129.5c-1.75-3.5-5.25-8.75-10.5-8.75z" />
  <path d="m584.5 288.75h-131.25c-5.25 0-10.5 3.5-10.5 10.5v129.5c0 5.25 3.5 10.5 10.5 10.5h131.25c5.25 0 10.5-3.5 10.5-10.5v-129.5c0-5.25-3.5-10.5-10.5-10.5z" />
</svg>
