<svg height="180pt" preserveAspectRatio="xMidYMid meet" viewBox="0 0 180 180" width="180pt" xmlns="http://www.w3.org/2000/svg"><path d="m715 1710c-308-67-542-291-625-600-31-113-34-290-6-400 80-322 323-557 641-621 340-69 688 75 868 357 96 152 131 273 131 454 0 173-32 289-122 442-76 128-229 259-376 321-154 65-349 83-511 47zm266-673c43-29 79-91 79-137s-36-108-79-137c-25-17-48-23-85-22-98 1-156 61-156 161 0 68 21 107 74 139 45 27 123 26 167-4zm-341-231c21-64 65-112 134-146 58-29 72-32 133-28 37 2 85 12 105 22 53 26 113 89 135 141l18 45h214 213l-7-56c-20-163-150-365-295-461-252-166-564-162-815 10-48 33-161 153-181 193-11 20-27 50-36 68-25 46-57 144-64 199l-7 47h221 220z" transform="matrix(.1 0 0 -.1 0 180)"/></svg>